<svg width="1380" height="240" viewBox="0 0 1380 240" fill="none" xmlns="http://www.w3.org/2000/svg">
<g clip-path="url(#clip0_746_89)">
<path d="M370 195.576V44.4295H457.076V72.1502H400.097V105.984H448.615V133.81H400.097V195.576H370Z" fill="black"/>
<path d="M475.177 195.576V86.1686H499.811L502.382 103.665C504.452 98.2547 508.165 93.7927 513.521 90.2793C518.947 86.7659 526.052 85.0092 534.835 85.0092V113.152C525.766 113.152 518.412 115.295 512.771 119.581C507.201 123.938 504.203 130.718 503.774 139.924V195.576H475.177Z" fill="black"/>
<path d="M546.83 166.485C546.83 161.285 547.651 156.753 549.294 152.888C551.007 148.953 553.471 145.721 556.684 143.191C559.897 140.661 563.467 138.659 567.394 137.183C571.393 135.637 575.999 134.443 581.211 133.599L610.022 128.435V124.324C610.022 118.984 608.666 114.873 605.952 111.992C603.31 109.111 599.455 107.671 594.385 107.671C589.601 107.671 585.638 109.006 582.496 111.676C579.355 114.346 577.784 117.859 577.784 122.216H550.151C550.793 110.833 555.077 101.592 563.003 94.4954C571 87.3281 581.461 83.7444 594.385 83.7444C607.952 83.7444 618.698 87.1524 626.624 93.9684C634.549 100.714 638.512 110.622 638.512 123.692V195.576H614.199L612.379 182.19C605.381 192.73 594.778 198 580.568 198C570.572 198 562.432 195.154 556.148 189.462C549.936 183.771 546.83 176.112 546.83 166.485ZM575.32 164.061C575.32 167.363 576.463 169.998 578.748 171.966C581.033 173.863 584.21 174.812 588.28 174.812C591.85 174.812 595.206 173.968 598.348 172.282C601.561 170.525 604.131 168.066 606.059 164.904C608.701 160.969 610.022 156.155 610.022 150.464V147.196L587.852 151.729C583.782 152.642 580.675 154.047 578.533 155.945C576.391 157.842 575.32 160.547 575.32 164.061Z" fill="black"/>
<path d="M666.252 195.576V86.1686H690.672L692.814 100.398C695.528 95.4791 699.419 91.4739 704.489 88.3821C709.63 85.2903 715.628 83.7444 722.483 83.7444C738.12 83.7444 748.723 90.1388 754.293 102.928C757.149 97.3764 761.326 92.809 766.824 89.2253C772.393 85.5714 778.891 83.7444 786.317 83.7444C797.884 83.7444 806.667 87.3632 812.665 94.6008C818.734 101.838 821.769 111.816 821.769 124.535V195.576H793.279V130.648C793.279 117.508 788.102 110.938 777.749 110.938C772.179 110.938 767.574 113.116 763.932 117.473C760.291 121.83 758.363 128.154 758.148 136.445V195.576H729.659V130.648C729.659 124.254 728.338 119.37 725.696 115.997C723.125 112.625 719.269 110.938 714.128 110.938C708.345 110.938 703.632 113.222 699.99 117.789C696.42 122.357 694.635 128.997 694.635 137.71V195.576H666.252Z" fill="black"/>
<path d="M842.44 140.978C842.44 124.324 847.545 110.622 857.756 99.8709C867.967 89.1199 881.284 83.7444 897.706 83.7444C905.132 83.7444 911.951 84.9038 918.163 87.2227C924.375 89.5415 929.802 93.0198 934.443 97.6574C939.085 102.225 942.69 108.198 945.261 115.576C947.903 122.884 949.224 131.281 949.224 140.767V149.41H871.787C872.215 156.718 874.857 162.655 879.713 167.223C884.568 171.72 890.852 173.968 898.563 173.968C904.061 173.968 908.774 172.879 912.701 170.701C916.628 168.452 919.377 165.29 920.948 161.215H948.581C945.154 172.95 939.12 182.014 930.48 188.408C921.912 194.803 910.987 198 897.706 198C881.212 198 867.86 192.8 857.649 182.401C847.51 172.001 842.44 158.193 842.44 140.978ZM872.001 129.91H920.52C920.377 123.024 918.163 117.508 913.879 113.362C909.666 109.146 904.061 107.038 897.064 107.038C890.066 107.038 884.282 109.146 879.713 113.362C875.214 117.578 872.644 123.094 872.001 129.91Z" fill="black"/>
<path d="M966.468 166.485C966.468 161.285 967.289 156.753 968.931 152.888C970.645 148.953 973.108 145.721 976.321 143.191C979.534 140.661 983.105 138.659 987.032 137.183C991.03 135.637 995.636 134.443 1000.85 133.599L1029.66 128.435V124.324C1029.66 118.984 1028.3 114.873 1025.59 111.992C1022.95 109.111 1019.09 107.671 1014.02 107.671C1009.24 107.671 1005.28 109.006 1002.13 111.676C998.992 114.346 997.421 117.859 997.421 122.216H969.788C970.431 110.833 974.715 101.592 982.641 94.4954C990.638 87.3281 1001.1 83.7444 1014.02 83.7444C1027.59 83.7444 1038.34 87.1524 1046.26 93.9684C1054.19 100.714 1058.15 110.622 1058.15 123.692V195.576H1033.84L1032.02 182.19C1025.02 192.73 1014.42 198 1000.21 198C990.209 198 982.069 195.154 975.786 189.462C969.574 183.771 966.468 176.112 966.468 166.485ZM994.958 164.061C994.958 167.363 996.1 169.998 998.385 171.966C1000.67 173.863 1003.85 174.812 1007.92 174.812C1011.49 174.812 1014.84 173.968 1017.99 172.282C1021.2 170.525 1023.77 168.066 1025.7 164.904C1028.34 160.969 1029.66 156.155 1029.66 150.464V147.196L1007.49 151.729C1003.42 152.642 1000.31 154.047 998.171 155.945C996.029 157.842 994.958 160.547 994.958 164.061Z" fill="black"/>
<path d="M1085.89 195.576V38H1114.27V97.9736C1117.41 93.7576 1121.88 90.3496 1127.66 87.7497C1133.44 85.0795 1140.16 83.7444 1147.8 83.7444C1157.58 83.7444 1166.43 86.274 1174.36 91.3333C1182.28 96.3223 1188.46 103.173 1192.89 111.887C1197.31 120.53 1199.53 130.156 1199.53 140.767C1199.53 151.377 1197.31 161.039 1192.89 169.752C1188.46 178.466 1182.28 185.352 1174.36 190.411C1166.43 195.47 1157.58 198 1147.8 198C1132.09 198 1120.31 192.308 1112.45 180.925L1110.31 195.576H1085.89ZM1113.74 141.399C1113.74 150.675 1116.52 158.053 1122.09 163.534C1127.73 168.944 1134.34 171.65 1141.91 171.65C1149.9 171.65 1156.58 168.804 1161.93 163.112C1167.29 157.42 1169.97 149.972 1169.97 140.767C1169.97 131.702 1167.25 124.324 1161.83 118.632C1156.47 112.941 1149.83 110.095 1141.91 110.095C1137.19 110.095 1132.73 111.219 1128.52 113.468C1124.38 115.716 1120.88 119.195 1118.02 123.903C1115.24 128.54 1113.81 133.951 1113.74 140.134V141.399Z" fill="black"/>
<path d="M1222.13 195.576V38H1250.72V195.576H1222.13Z" fill="black"/>
<path d="M1273.22 140.978C1273.22 124.324 1278.32 110.622 1288.53 99.8709C1298.74 89.1199 1312.06 83.7444 1328.48 83.7444C1335.91 83.7444 1342.73 84.9038 1348.94 87.2227C1355.15 89.5415 1360.58 93.0198 1365.22 97.6574C1369.86 102.225 1373.47 108.198 1376.04 115.576C1378.68 122.884 1380 131.281 1380 140.767V149.41H1302.56C1302.99 156.718 1305.63 162.655 1310.49 167.223C1315.34 171.72 1321.63 173.968 1329.34 173.968C1334.84 173.968 1339.55 172.879 1343.48 170.701C1347.4 168.452 1350.15 165.29 1351.72 161.215H1379.36C1375.93 172.95 1369.9 182.014 1361.26 188.408C1352.69 194.803 1341.76 198 1328.48 198C1311.99 198 1298.64 192.8 1288.43 182.401C1278.29 172.001 1273.22 158.193 1273.22 140.978ZM1302.78 129.91H1351.3C1351.15 123.024 1348.94 117.508 1344.66 113.362C1340.44 109.146 1334.84 107.038 1327.84 107.038C1320.84 107.038 1315.06 109.146 1310.49 113.362C1305.99 117.578 1303.42 123.094 1302.78 129.91Z" fill="black"/>
<path d="M0 12.1875C0 5.45653 5.45653 0 12.1875 0H227.812C234.543 0 240 5.47649 240 12.2075C240 15.1911 238.815 18.0603 236.705 20.17L175.795 81.08C173.685 83.1897 170.824 84.375 167.84 84.375H93.75C88.5723 84.375 84.375 88.5723 84.375 93.75V167.84C84.375 170.824 83.1897 173.685 81.08 175.795L20.17 236.705C18.0603 238.815 15.1911 240 12.2075 240C5.47649 240 0 234.543 0 227.812V12.1875Z" fill="black"/>
<path d="M131.25 143.438C131.25 136.707 136.707 131.25 143.438 131.25H216.562C223.293 131.25 228.75 136.707 228.75 143.438C228.75 147.039 227.319 150.493 224.773 153.04L153.04 224.773C150.493 227.319 147.039 228.75 143.438 228.75C136.707 228.75 131.25 223.293 131.25 216.562V143.438Z" fill="black"/>
</g>
<defs>
<clipPath id="clip0_746_89">
<rect width="1380" height="240" fill="white"/>
</clipPath>
</defs>
</svg>
